<svg width="334" height="76" viewBox="0 0 334 76" fill="none" xmlns="http://www.w3.org/2000/svg">
<g filter="url(#filter0_d_1_29)">
<path d="M103.264 52.984H112.48C114.827 52.984 117.003 52.5787 119.008 51.768C121.013 50.9147 122.763 49.7627 124.256 48.312C125.792 46.8187 126.965 45.0907 127.776 43.128C128.629 41.1227 129.056 38.9467 129.056 36.6C129.056 34.296 128.629 32.1413 127.776 30.136C126.965 28.1307 125.792 26.4027 124.256 24.952C122.763 23.4587 121.013 22.3067 119.008 21.496C117.003 20.6427 114.827 20.216 112.48 20.216H103.264V52.984ZM96.544 59V14.2H112.352C115.723 14.2 118.837 14.776 121.696 15.928C124.555 17.0373 127.051 18.5947 129.184 20.6C131.317 22.6053 132.981 24.9733 134.176 27.704C135.371 30.4347 135.968 33.4 135.968 36.6C135.968 39.8427 135.371 42.8293 134.176 45.56C133.024 48.248 131.381 50.5947 129.248 52.6C127.115 54.6053 124.597 56.184 121.696 57.336C118.837 58.4453 115.723 59 112.352 59H96.544Z" fill="white"/>
<path d="M143.044 59V14.2H176.068V20.088H149.764V33.528H167.044V39.224H149.764V53.112H176.324V59H143.044Z" fill="white"/>
<path d="M197.493 59L179.189 14.2H186.421L201.589 52.344L217.013 14.2H223.925L205.365 59H197.493Z" fill="white"/>
<path d="M228.544 59V14.2H235.264V59H228.544Z" fill="white"/>
<path d="M244.419 59V14.2H250.947L275.971 47.48V14.2H282.307V59H276.419L250.819 24.696V59H244.419Z" fill="white"/>
<path d="M291.482 59V14.2H298.202V34.936L319.897 14.2H328.409L305.113 35.896L329.113 59H319.897L298.202 37.752V59H291.482Z" fill="white"/>
<path d="M23.5401 18C25.54 14.5 28.3079 10.0915 32.0401 10H75.54C83.04 10.5 81.4599 18.5 74 41C66.5401 63.5 66.5 61 66.5 61C64.7154 65.4399 62.8786 66.864 58.5 68H13.0401C9.57619 66.4798 8.11914 65.0308 9.54005 57.5C9.54005 57.5 21.5401 21.5 23.5401 18Z" fill="#3A506B"/>
<path d="M18.5401 8.00002C20.54 4.50002 23.3079 0.0915146 27.0401 0H70.54C78.04 0.499996 76.4599 8.49997 69 31C61.5401 53.5 61.5 51 61.5 51C59.7154 55.4399 57.8786 56.864 53.5 58H8.04005C4.57619 56.4798 3.11914 55.0308 4.54005 47.5C4.54005 47.5 16.5401 11.5 18.5401 8.00002Z" fill="#6FFFE9"/>
</g>
<defs>
<filter id="filter0_d_1_29" x="0" y="0" width="333.113" height="76" filterUnits="userSpaceOnUse" color-interpolation-filters="sRGB">
<feFlood flood-opacity="0" result="BackgroundImageFix"/>
<feColorMatrix in="SourceAlpha" type="matrix" values="0 0 0 0 0 0 0 0 0 0 0 0 0 0 0 0 0 0 127 0" result="hardAlpha"/>
<feOffset dy="4"/>
<feGaussianBlur stdDeviation="2"/>
<feComposite in2="hardAlpha" operator="out"/>
<feColorMatrix type="matrix" values="0 0 0 0 0 0 0 0 0 0 0 0 0 0 0 0 0 0 0.25 0"/>
<feBlend mode="normal" in2="BackgroundImageFix" result="effect1_dropShadow_1_29"/>
<feBlend mode="normal" in="SourceGraphic" in2="effect1_dropShadow_1_29" result="shape"/>
</filter>
</defs>
</svg>
